:FULLY-SPECIFIED
:FORCE-ALL-JOINTS-BE-3DOF
:DEGREES
194
root 8.24415 16.5964 -10.1182 7.33177 4.22859 -3.98445
lfemur -34.4447 2.49723 -14.3879
ltibia 32.8744 0 0
lfoot -10.75 12.7407 0
ltoes -17.5046 0 0
rfemur -5.22498 3.898 30.3054
rtibia 14.9901 0 0
rfoot -18.4163 4.06126 0
rtoes -9.96559 0 0
lowerback -5.59013 1.17634 1.99646
upperback -0.760385 1.34137 3.60642
thorax 2.33134 0.67811 2.73634
lowerneck -16.7969 -6.92516 -14.5754
upperneck 14.3607 -8.70426 15.1078
head 8.57488 -3.55671 6.44326
lclavicle 1.72473e-14 1.00626e-14 0
lhumerus -49.2782 -10.8059 96.9364
lradius 27.4866 0 0
lwrist 8.984 0 0
lhand -9.35795 -22.5732 0
lfingers 7.12502 0 0
lthumb 16.5961 6.66224 0
rclavicle 1.72473e-14 1.00626e-14 0
rhumerus -37.2024 11.015 -80.7046
rradius 48.8377 0 0
rwrist -25.4514 0 0
rhand -32.2311 -29.0283 0
rfingers 7.12502 0 0
rthumb -5.4716 -58.9284 0
195
root 8.24499 16.5939 -9.9921 7.32163 4.00197 -4.04499
lfemur -35.2683 2.29104 -14.4894
ltibia 31.8035 0 0
lfoot -11.2577 12.6345 0
ltoes -17.5493 0 0
rfemur -4.48352 4.02859 30.3845
rtibia 14.5212 0 0
rfoot -18.5518 4.10683 0
rtoes -9.854 0 0
lowerback -5.64676 1.26574 2.03236
upperback -0.735774 1.45729 3.59693
thorax 2.38481 0.735632 2.71371
lowerneck -16.7433 -6.90231 -14.567
upperneck 14.3966 -8.68391 15.1027
head 8.57396 -3.54953 6.44473
lclavicle 1.84891e-14 9.34757e-15 0
lhumerus -49.3191 -10.7833 96.8927
lradius 27.5575 0 0
lwrist 9.11581 0 0
lhand -9.69705 -22.7376 0
lfingers 7.12502 0 0
lthumb 16.2701 6.53108 0
rclavicle 1.84891e-14 9.34757e-15 0
rhumerus -36.9706 11.0399 -80.7008
rradius 49.2841 0 0
rwrist -25.6579 0 0
rhand -32.3625 -29.0707 0
rfingers 7.12502 0 0
rthumb -5.59849 -58.9685 0
196
root 8.24584 16.5913 -9.86599 7.31357 3.77659 -4.10167
lfemur -36.0673 2.09748 -14.5939
ltibia 30.7786 0 0
lfoot -11.7449 12.5269 0
ltoes -17.5803 0 0
rfemur -3.75888 4.15262 30.4531
rtibia 14.081 0 0
rfoot -18.6624 4.15116 0
rtoes -9.75048 0 0
lowerback -5.70189 1.35241 2.06497
upperback -0.713716 1.56987 3.58646
thorax 2.43487 0.791509 2.69168
lowerneck -16.6929 -6.87953 -14.5584
upperneck 14.4334 -8.66334 15.0973
head 8.57387 -3.54213 6.44613
lclavicle 1.96583e-14 8.64768e-15 0
lhumerus -49.3558 -10.7574 96.8445
lradius 27.6205 0 0
lwrist 9.2312 0 0
lhand -10.0222 -22.896 0
lfingers 7.12502 0 0
lthumb 15.9575 6.40469 0
rclavicle 1.96583e-14 8.64768e-15 0
rhumerus -36.7544 11.0619 -80.7016
rradius 49.7081 0 0
rwrist -25.8542 0 0
rhand -32.4868 -29.1068 0
rfingers 7.12502 0 0
rthumb -5.71854 -59.0024 0
197
root 8.24668 16.5888 -9.73989 7.3078 3.55292 -4.15434
lfemur -36.8399 1.91784 -14.7013
ltibia 29.8056 0 0
lfoot -12.2088 12.4183 0
ltoes -17.5968 0 0
rfemur -3.05259 4.26919 30.5108
rtibia 13.672 0 0
rfoot -18.7461 4.19452 0
rtoes -9.65548 0 0
lowerback -5.75521 1.43614 2.09421
upperback -0.694421 1.67882 3.57499
thorax 2.48114 0.845602 2.67024
lowerneck -16.646 -6.8569 -14.5497
upperneck 14.4709 -8.64266 15.0918
head 8.57462 -3.53452 6.44748
lclavicle 2.07495e-14 7.96609e-15 0
lhumerus -49.3885 -10.7275 96.7914
lradius 27.6746 0 0
lwrist 9.32875 0 0
lhand -10.3318 -23.0475 0
lfingers 7.12502 0 0
lthumb 15.6599 6.28369 0
rclavicle 2.07495e-14 7.96609e-15 0
rhumerus -36.5548 11.0808 -80.707
rradius 50.1075 0 0
rwrist -26.0394 0 0
rhand -32.6034 -29.1364 0
rfingers 7.12502 0 0
rthumb -5.83113 -59.0299 0
198
root 8.24753 16.5863 -9.61379 7.30455 3.33142 -4.2029
lfemur -37.5843 1.7534 -14.8111
ltibia 28.8905 0 0
lfoot -12.6472 12.3092 0
ltoes -17.5983 0 0
rfemur -2.3662 4.3774 30.5575
rtibia 13.2967 0 0
rfoot -18.8007 4.23723 0
rtoes -9.56943 0 0
lowerback -5.80646 1.51669 2.12003
upperback -0.678097 1.78386 3.56254
thorax 2.52323 0.897773 2.64942
lowerneck -16.6027 -6.83453 -14.541
upperneck 14.509 -8.62195 15.0863
head 8.57619 -3.52673 6.44881
lclavicle 2.17569e-14 7.30598e-15 0
lhumerus -49.4174 -10.6931 96.7334
lradius 27.7189 0 0
lwrist 9.40706 0 0
lhand -10.6241 -23.1914 0
lfingers 7.12502 0 0
lthumb 15.3789 6.1687 0
rclavicle 2.17569e-14 7.30598e-15 0
rhumerus -36.3732 11.0966 -80.7175
rradius 50.4805 0 0
rwrist -26.2126 0 0
rhand -32.7116 -29.1591 0
rfingers 7.12502 0 0
rthumb -5.93561 -59.0506 0
199
root 8.24837 16.5838 -9.48768 7.30402 3.11254 -4.24722
lfemur -38.2986 1.60546 -14.923
ltibia 28.0396 0 0
lfoot -13.0574 12.1999 0
ltoes -17.5839 0 0
rfemur -1.70124 4.47637 30.593
rtibia 12.9577 0 0
rfoot -18.8243 4.27959 0
rtoes -9.49279 0 0
lowerback -5.85535 1.59385 2.14237
upperback -0.664953 1.8847 3.54907
thorax 2.56077 0.947883 2.62922
lowerneck -16.5633 -6.81251 -14.5322
upperneck 14.5475 -8.60131 15.0809
head 8.57859 -3.51877 6.45013
lclavicle 2.26752e-14 6.67053e-15 0
lhumerus -49.4427 -10.6536 96.6701
lradius 27.7522 0 0
lwrist 9.46471 0 0
lhand -10.8975 -23.3269 0
lfingers 7.12502 0 0
lthumb 15.1161 6.06032 0
rclavicle 2.26752e-14 6.67053e-15 0
rhumerus -36.2107 11.109 -80.7332
rradius 50.825 0 0
rwrist -26.3729 0 0
rhand -32.8107 -29.1744 0
rfingers 7.12502 0 0
rthumb -6.03135 -59.0642 0
200
root 8.24922 16.5812 -9.36158 7.30642 2.89675 -4.28717
lfemur -38.981 1.47531 -15.0366
ltibia 27.2587 0 0
lfoot -13.437 12.091 0
ltoes -17.5529 0 0
rfemur -1.05926 4.56519 30.6172
rtibia 12.6576 0 0
rfoot -18.8146 4.32188 0
rtoes -9.42599 0 0
lowerback -5.90158 1.6674 2.16115
upperback -0.655197 1.98105 3.5346
thorax 2.59338 0.995795 2.60967
lowerneck -16.5282 -6.79091 -14.5235
upperneck 14.5861 -8.58082 15.0757
head 8.5818 -3.51069 6.45148
lclavicle 2.34987e-14 6.06294e-15 0
lhumerus -49.4644 -10.6084 96.6014
lradius 27.7735 0 0
lwrist 9.5003 0 0
lhand -11.1505 -23.4532 0
lfingers 7.12502 0 0
lthumb 14.873 5.95919 0
rclavicle 2.34987e-14 6.06294e-15 0
rhumerus -36.0686 11.1179 -80.7543
rradius 51.1392 0 0
rwrist -26.5195 0 0
rhand -32.9002 -29.1822 0
rfingers 7.12502 0 0
rthumb -6.11771 -59.0704 0
201
root 8.25006 16.5787 -9.23548 7.31197 2.68451 -4.32264
lfemur -39.6298 1.36422 -15.1517
ltibia 26.554 0 0
lfoot -13.7834 11.9829 0
ltoes -17.5047 0 0
rfemur -0.44179 4.64297 30.6298
rtibia 12.3987 0 0
rfoot -18.7696 4.36442 0
rtoes -9.36948 0 0
lowerback -5.94487 1.73712 2.17633
upperback -0.649039 2.07262 3.5191
thorax 2.62066 1.04137 2.59077
lowerneck -16.4974 -6.76984 -14.5149
upperneck 14.6248 -8.56057 15.0709
head 8.58583 -3.50249 6.45288
lclavicle 2.4222e-14 5.48638e-15 0
lhumerus -49.4829 -10.5569 96.5271
lradius 27.7818 0 0
lwrist 9.51242 0 0
lhand -11.3812 -23.5696 0
lfingers 7.12502 0 0
lthumb 14.6512 5.86591 0
rclavicle 2.4222e-14 5.48638e-15 0
rhumerus -35.9481 11.1233 -80.7813
rradius 51.421 0 0
rwrist -26.6515 0 0
rhand -32.9792 -29.182 0
rfingers 7.12502 0 0
rthumb -6.19404 -59.0688 0
202
root 8.25091 16.5762 -9.10937 7.32089 2.47628 -4.35351
lfemur -40.243 1.27349 -15.2678
ltibia 25.9315 0 0
lfoot -14.0942 11.876 0
ltoes -17.4385 0 0
rfemur 0.149623 4.70882 30.6307
rtibia 12.1838 0 0
rfoot -18.6872 4.4075 0
rtoes -9.32369 0 0
lowerback -5.98493 1.80279 2.18784
upperback -0.646686 2.15913 3.50258
thorax 2.64224 1.08447 2.57255
lowerneck -16.4713 -6.74938 -14.5063
upperneck 14.6632 -8.54067 15.0664
head 8.59067 -3.4942 6.45434
lclavicle 2.48394e-14 4.94404e-15 0
lhumerus -49.4983 -10.4984 96.4469
lradius 27.7762 0 0
lwrist 9.49965 0 0
lhand -11.5882 -23.6753 0
lfingers 7.12502 0 0
lthumb 14.4522 5.78111 0
rclavicle 2.48394e-14 4.94404e-15 0
rhumerus -35.8504 11.1249 -80.8142
rradius 51.6684 0 0
rwrist -26.7678 0 0
rhand -33.0472 -29.1734 0
rfingers 7.12502 0 0
rthumb -6.25971 -59.0591 0
203
root 8.25175 16.5737 -8.98327 7.33338 2.27251 -4.37964
lfemur -40.819 1.20442 -15.3846
ltibia 25.3972 0 0
lfoot -14.367 11.7709 0
ltoes -17.3536 0 0
rfemur 0.713441 4.76183 30.6197
rtibia 12.0153 0 0
rfoot -18.5653 4.45142 0
rtoes -9.28908 0 0
lowerback -6.02148 1.86418 2.19561
upperback -0.648348 2.24028 3.48503
thorax 2.65773 1.12495 2.55501
lowerneck -16.4501 -6.72963 -14.4979
upperneck 14.7013 -8.5212 15.0625
head 8.59631 -3.48584 6.4559
lclavicle 2.53455e-14 4.4391e-15 0
lhumerus -49.5107 -10.4324 96.3607
lradius 27.7554 0 0
lwrist 9.46059 0 0
lhand -11.7698 -23.7695 0
lfingers 7.12502 0 0
lthumb 14.2778 5.70538 0
rclavicle 2.53455e-14 4.4391e-15 0
rhumerus -35.7768 11.1227 -80.8533
rradius 51.8796 0 0
rwrist -26.8678 0 0
rhand -33.1035 -29.1562 0
rfingers 7.12502 0 0
rthumb -6.31408 -59.041 0
204
root 8.2526 16.5711 -8.85717 7.34965 2.07366 -4.40092
lfemur -41.3558 1.15828 -15.5018
ltibia 24.9573 0 0
lfoot -14.599 11.6679 0
ltoes -17.2494 0 0
rfemur 1.24812 4.80111 30.5966
rtibia 11.8958 0 0
rfoot -18.4017 4.49648 0
rtoes -9.26608 0 0
lowerback -6.05423 1.92108 2.19958
upperback -0.654233 2.31579 3.46643
thorax 2.66676 1.16269 2.53816
lowerneck -16.4341 -6.71067 -14.4897
upperneck 14.7388 -8.50224 15.0591
head 8.60276 -3.47743 6.45758
lclavicle 2.57347e-14 3.97475e-15 0
lhumerus -49.5204 -10.3583 96.2682
lradius 27.7186 0 0
lwrist 9.39384 0 0
lhand -11.9242 -23.8514 0
lfingers 7.12502 0 0
lthumb 14.1293 5.63937 0
rclavicle 2.57347e-14 3.97475e-15 0
rhumerus -35.7284 11.1164 -80.8989
rradius 52.0525 0 0
rwrist -26.9505 0 0
rhand -33.1475 -29.13 0
rfingers 7.12502 0 0
rthumb -6.35651 -59.014 0
205
root 8.25344 16.5686 -8.73106 7.36993 1.8802 -4.41722
lfemur -41.8516 1.13636 -15.6191
ltibia 24.6177 0 0
lfoot -14.788 11.5676 0
ltoes -17.125 0 0
rfemur 1.75213 4.82578 30.5613
rtibia 11.8277 0 0
rfoot -18.1945 4.54297 0
rtoes -9.25514 0 0
lowerback -6.0829 1.97326 2.1997
upperback -0.66455 2.38538 3.44679
thorax 2.66894 1.19753 2.52203
lowerneck -16.4235 -6.6926 -14.4818
upperneck 14.7755 -8.4839 15.0566
head 8.61001 -3.46901 6.4594
lclavicle 2.60014e-14 3.55417e-15 0
lhumerus -49.5276 -10.2754 96.1692
lradius 27.6647 0 0
lwrist 9.29797 0 0
lhand -12.05 -23.9203 0
lfingers 7.12502 0 0
lthumb 14.0085 5.58367 0
rclavicle 2.60014e-14 3.55417e-15 0
rhumerus -35.7065 11.106 -80.9513
rradius 52.1852 0 0
rwrist -27.0149 0 0
rhand -33.1784 -29.0945 0
rfingers 7.12502 0 0
rthumb -6.38636 -58.978 0
206
root 8.25429 16.5661 -8.60496 7.39442 1.69259 -4.42843
lfemur -42.3047 1.13996 -15.736
ltibia 24.3845 0 0
lfoot -14.9314 11.4703 0
ltoes -16.9798 0 0
rfemur 2.22393 4.83492 30.5135
rtibia 11.8137 0 0
rfoot -17.9414 4.59121 0
rtoes -9.2567 0 0
lowerback -6.10719 2.02051 2.1959
upperback -0.679507 2.44875 3.42609
thorax 2.66388 1.22934 2.50663
lowerneck -16.4185 -6.67551 -14.4741
upperneck 14.8112 -8.46627 15.0548
head 8.61805 -3.46058 6.46138
lclavicle 2.61402e-14 3.18055e-15 0
lhumerus -49.5323 -10.1832 96.0635
lradius 27.5926 0 0
lwrist 9.17158 0 0
lhand -12.1454 -23.9754 0
lfingers 7.12502 0 0
lthumb 13.9169 5.5389 0
rclavicle 2.61402e-14 3.18055e-15 0
rhumerus -35.7123 11.0914 -81.0107
rradius 52.2757 0 0
rwrist -27.0603 0 0
rhand -33.1956 -29.0492 0
rfingers 7.12502 0 0
rthumb -6.403 -58.9325 0
